<svg xmlns="http://www.w3.org/2000/svg" xmlns:xlink="http://www.w3.org/1999/xlink" width="1080" zoomAndPan="magnify" viewBox="0 0 810 809.999993" height="1080" preserveAspectRatio="xMidYMid meet" version="1.0"><defs><g/><clipPath id="2282046010"><path d="M 149.550781 130.648438 L 249.300781 130.648438 L 249.300781 244.648438 L 149.550781 244.648438 Z M 149.550781 130.648438 " clip-rule="nonzero"/></clipPath><clipPath id="aab2f87202"><path d="M 266.558594 130.648438 L 361.808594 130.648438 L 361.808594 237.148438 L 266.558594 237.148438 Z M 266.558594 130.648438 " clip-rule="nonzero"/></clipPath><clipPath id="8bc44a2990"><path d="M 393.574219 130.648438 L 507.574219 130.648438 L 507.574219 244.648438 L 393.574219 244.648438 Z M 393.574219 130.648438 " clip-rule="nonzero"/></clipPath><clipPath id="364a3862cc"><path d="M 393.574219 130.648438 L 451 130.648438 L 451 244.648438 L 393.574219 244.648438 Z M 393.574219 130.648438 " clip-rule="nonzero"/></clipPath><clipPath id="222adb4d3f"><path d="M 538.714844 130.648438 L 645.214844 130.648438 L 645.214844 237.148438 L 538.714844 237.148438 Z M 538.714844 130.648438 " clip-rule="nonzero"/></clipPath><clipPath id="e05b25167e"><path d="M 412.714844 294.910156 L 553.714844 294.910156 L 553.714844 415.660156 L 412.714844 415.660156 Z M 412.714844 294.910156 " clip-rule="nonzero"/></clipPath><clipPath id="e9254a7cdf"><path d="M 440 294.910156 L 527 294.910156 L 527 369 L 440 369 Z M 440 294.910156 " clip-rule="nonzero"/></clipPath><clipPath id="48c48a3113"><path d="M 233.519531 297 L 364 297 L 364 414 L 233.519531 414 Z M 233.519531 297 " clip-rule="nonzero"/></clipPath><clipPath id="196bfa7f65"><path d="M 314.449219 508.460938 L 462.199219 508.460938 L 462.199219 656.210938 L 314.449219 656.210938 Z M 314.449219 508.460938 " clip-rule="nonzero"/></clipPath><clipPath id="69b683b94a"><path d="M 231.566406 531.617188 L 302.066406 531.617188 L 302.066406 633.617188 L 231.566406 633.617188 Z M 231.566406 531.617188 " clip-rule="nonzero"/></clipPath><clipPath id="ef775bce74"><path d="M 462.492188 531.617188 L 564.21875 531.617188 L 564.21875 633.34375 L 462.492188 633.34375 Z M 462.492188 531.617188 " clip-rule="nonzero"/></clipPath><clipPath id="92cd5a8516"><path d="M 513.355469 531.617188 C 485.261719 531.617188 462.492188 554.386719 462.492188 582.480469 C 462.492188 610.570312 485.261719 633.34375 513.355469 633.34375 C 541.445312 633.34375 564.21875 610.570312 564.21875 582.480469 C 564.21875 554.386719 541.445312 531.617188 513.355469 531.617188 " clip-rule="nonzero"/></clipPath><clipPath id="5fb5e6fe9b"><path d="M 470.003906 539.128906 L 556.703125 539.128906 L 556.703125 625.828125 L 470.003906 625.828125 Z M 470.003906 539.128906 " clip-rule="nonzero"/></clipPath><clipPath id="9f63883768"><path d="M 513.355469 539.128906 C 489.414062 539.128906 470.003906 558.539062 470.003906 582.480469 C 470.003906 606.421875 489.414062 625.828125 513.355469 625.828125 C 537.296875 625.828125 556.703125 606.421875 556.703125 582.480469 C 556.703125 558.539062 537.296875 539.128906 513.355469 539.128906 " clip-rule="nonzero"/></clipPath></defs><g clip-path="url(#2282046010)"><path fill="#000000" d="M 158.605469 233.003906 L 149.523438 130.96875 L 249.328125 130.96875 L 240.238281 232.988281 L 199.363281 244.332031 Z M 158.605469 233.003906 " fill-opacity="1" fill-rule="nonzero"/></g><path fill="#455a64" d="M 232.453125 226.492188 L 240.226562 139.3125 L 199.425781 139.3125 L 199.425781 235.664062 Z M 232.453125 226.492188 " fill-opacity="1" fill-rule="nonzero"/><path fill="#ebebeb" d="M 199.382812 151.824219 L 168.09375 151.824219 L 171.464844 189.667969 L 199.425781 189.667969 L 199.425781 177.15625 L 182.894531 177.15625 L 181.75 164.34375 L 199.425781 164.34375 L 199.425781 151.824219 Z M 199.425781 209.613281 L 199.375 209.628906 L 185.457031 205.867188 L 184.574219 195.886719 L 172.023438 195.886719 L 173.773438 215.535156 L 199.371094 222.621094 L 199.425781 222.601562 Z M 199.425781 209.613281 " fill-opacity="1" fill-rule="nonzero"/><path fill="#ffffff" d="M 199.382812 189.667969 L 214.769531 189.667969 L 213.355469 205.894531 L 199.417969 209.660156 L 199.417969 222.679688 L 225.035156 215.570312 L 228.46875 177.148438 L 199.425781 177.148438 Z M 230.382812 155.183594 L 230.679688 151.824219 L 199.375 151.824219 L 199.375 164.339844 L 229.554688 164.339844 L 229.804688 161.527344 Z M 230.382812 155.183594 " fill-opacity="1" fill-rule="nonzero"/><g clip-path="url(#aab2f87202)"><path fill="#000000" d="M 361.796875 130.648438 L 266.566406 130.648438 L 274.96875 225.9375 L 314.183594 237.148438 L 353.394531 225.9375 Z M 361.796875 130.648438 " fill-opacity="1" fill-rule="nonzero"/></g><path fill="#455a64" d="M 314.183594 139.058594 L 314.183594 228.460938 L 345.550781 219.492188 L 352.554688 139.058594 Z M 314.183594 139.058594 " fill-opacity="1" fill-rule="nonzero"/><path fill="#ffffff" d="M 339.671875 153.070312 L 314.183594 153.070312 L 314.183594 164.28125 L 327.90625 164.28125 L 327.066406 175.492188 L 314.183594 175.492188 L 314.183594 186.703125 L 326.507812 186.703125 L 325.664062 199.3125 L 314.183594 203.238281 L 314.183594 215.007812 L 336.308594 207.722656 L 338.269531 175.492188 Z M 339.671875 153.070312 " fill-opacity="1" fill-rule="nonzero"/><path fill="#eeeeee" d="M 314.183594 153.070312 L 314.183594 164.28125 L 289.253906 164.28125 L 288.414062 153.070312 Z M 301.296875 175.492188 L 301.859375 186.703125 L 314.183594 186.703125 L 314.183594 175.492188 Z M 302.417969 192.308594 L 291.214844 192.308594 L 292.054688 207.722656 L 314.183594 215.007812 L 314.183594 203.238281 L 302.699219 199.3125 Z M 302.417969 192.308594 " fill-opacity="1" fill-rule="nonzero"/><g clip-path="url(#8bc44a2990)"><path fill="#455a64" d="M 397.816406 130.382812 C 396.675781 130.382812 395.589844 130.875 394.835938 131.730469 C 394.082031 132.585938 393.730469 133.722656 393.871094 134.855469 L 404.476562 219.691406 C 404.640625 221.011719 405.453125 222.160156 406.644531 222.753906 L 449.0625 243.964844 C 450.179688 244.523438 451.5 244.523438 452.617188 243.964844 L 495.035156 222.753906 C 496.226562 222.160156 497.039062 221.011719 497.203125 219.691406 L 507.808594 134.855469 C 507.949219 133.722656 507.597656 132.585938 506.84375 131.730469 C 506.089844 130.875 505.003906 130.382812 503.863281 130.382812 Z M 397.816406 130.382812 " fill-opacity="1" fill-rule="nonzero"/></g><g clip-path="url(#364a3862cc)"><path fill="#000000" d="M 450.839844 130.382812 L 450.839844 244.382812 C 450.230469 244.382812 449.621094 244.246094 449.0625 243.964844 L 406.644531 222.753906 C 405.453125 222.160156 404.640625 221.011719 404.476562 219.691406 L 393.871094 134.855469 C 393.730469 133.722656 394.082031 132.585938 394.835938 131.730469 C 395.589844 130.875 396.675781 130.382812 397.816406 130.382812 Z M 450.839844 130.382812 " fill-opacity="1" fill-rule="evenodd"/></g><path fill="#cfd8dc" d="M 442.886719 146.292969 C 445.082031 146.292969 446.863281 148.070312 446.863281 150.269531 L 446.863281 219.199219 C 446.863281 220.617188 446.109375 221.925781 444.882812 222.636719 C 443.65625 223.347656 442.144531 223.355469 440.914062 222.652344 L 422.355469 212.046875 C 420.449219 210.957031 419.785156 208.527344 420.875 206.621094 C 421.964844 204.714844 424.394531 204.050781 426.300781 205.140625 L 438.910156 212.34375 L 438.910156 150.269531 C 438.910156 148.070312 440.691406 146.292969 442.886719 146.292969 Z M 442.886719 146.292969 " fill-opacity="1" fill-rule="evenodd"/><path fill="#eceff1" d="M 454.816406 150.269531 C 454.816406 148.070312 456.597656 146.292969 458.792969 146.292969 L 485.304688 146.292969 C 487.503906 146.292969 489.28125 148.070312 489.28125 150.269531 C 489.28125 152.464844 487.503906 154.246094 485.304688 154.246094 L 462.769531 154.246094 L 462.769531 179.773438 L 481.792969 175.546875 C 483.03125 175.273438 484.328125 175.605469 485.28125 176.445312 C 486.234375 177.285156 486.730469 178.527344 486.617188 179.789062 L 483.964844 208.953125 C 483.839844 210.324219 483.015625 211.535156 481.78125 212.148438 L 460.574219 222.753906 C 458.609375 223.738281 456.21875 222.941406 455.238281 220.976562 C 454.253906 219.011719 455.050781 216.625 457.015625 215.640625 L 476.242188 206.027344 L 478.203125 184.492188 L 459.65625 188.613281 C 458.480469 188.875 457.246094 188.589844 456.304688 187.835938 C 455.363281 187.082031 454.816406 185.9375 454.816406 184.734375 Z M 454.816406 150.269531 " fill-opacity="1" fill-rule="evenodd"/><g clip-path="url(#222adb4d3f)"><path fill="#000000" d="M 645.214844 222.359375 C 645.214844 230.527344 638.59375 237.148438 630.421875 237.148438 L 553.503906 237.148438 C 545.335938 237.148438 538.714844 230.527344 538.714844 222.359375 L 538.714844 145.441406 C 538.714844 137.269531 545.335938 130.648438 553.503906 130.648438 L 630.421875 130.648438 C 638.59375 130.648438 645.214844 137.269531 645.214844 145.441406 Z M 645.214844 222.359375 " fill-opacity="1" fill-rule="nonzero"/></g><path fill="#ffffff" d="M 618.675781 188.632812 C 616.753906 185.96875 613.972656 184.136719 610.394531 183.160156 C 610.394531 183.160156 613.410156 182.066406 616.132812 177.984375 C 617.761719 175.378906 618.589844 172.242188 618.589844 168.574219 C 618.589844 162.214844 616.28125 157.332031 611.664062 153.992188 C 607.050781 150.648438 601.84375 148.398438 593 148.398438 L 565.339844 148.398438 L 565.339844 219.398438 L 596.195312 219.398438 C 604.566406 219.339844 610.867188 217.535156 615.15625 214.074219 C 619.417969 210.554688 621.546875 205.347656 621.546875 198.394531 C 621.546875 194.550781 620.601562 191.296875 618.675781 188.632812 Z M 583.089844 160.234375 C 583.089844 160.234375 595.425781 160.234375 595.660156 160.234375 C 600.15625 160.234375 603.796875 163.871094 603.796875 168.367188 C 603.796875 172.863281 600.15625 176.503906 595.660156 176.503906 C 595.425781 176.503906 583.089844 176.503906 583.089844 176.503906 Z M 597.878906 207.566406 L 583.089844 207.566406 L 583.089844 189.816406 L 597.878906 189.816406 C 602.789062 189.816406 606.753906 193.78125 606.753906 198.691406 C 606.753906 203.601562 602.789062 207.566406 597.878906 207.566406 Z M 597.878906 207.566406 " fill-opacity="1" fill-rule="nonzero"/><g clip-path="url(#e05b25167e)"><path fill="#000000" d="M 483.171875 325.097656 L 465.554688 294.910156 L 412.699219 294.910156 L 483.171875 415.660156 L 553.644531 294.910156 L 500.789062 294.910156 Z M 483.171875 325.097656 " fill-opacity="1" fill-rule="nonzero"/></g><g clip-path="url(#e9254a7cdf)"><path fill="#455a64" d="M 500.789062 294.910156 L 483.171875 325.097656 L 465.554688 294.910156 L 440.105469 294.910156 L 483.171875 368.699219 L 526.238281 294.910156 Z M 500.789062 294.910156 " fill-opacity="1" fill-rule="nonzero"/></g><g clip-path="url(#48c48a3113)"><path fill="#000000" d="M 340.730469 334.898438 C 339.382812 334.433594 337.984375 333.996094 336.539062 333.578125 C 336.777344 332.613281 336.996094 331.65625 337.1875 330.71875 C 340.359375 315.316406 338.289062 302.910156 331.203125 298.824219 C 324.40625 294.90625 313.292969 298.992188 302.070312 308.757812 C 300.992188 309.695312 299.910156 310.6875 298.828125 311.730469 C 298.109375 311.042969 297.390625 310.375 296.671875 309.738281 C 284.910156 299.296875 273.121094 294.898438 266.042969 298.996094 C 259.253906 302.921875 257.246094 314.589844 260.101562 329.183594 C 260.378906 330.59375 260.699219 332.035156 261.066406 333.5 C 259.394531 333.972656 257.785156 334.476562 256.246094 335.015625 C 242.457031 339.820312 233.648438 347.351562 233.648438 355.167969 C 233.648438 363.234375 243.101562 371.332031 257.464844 376.238281 C 258.597656 376.625 259.773438 376.992188 260.984375 377.339844 C 260.59375 378.921875 260.25 380.472656 259.964844 381.988281 C 257.238281 396.332031 259.367188 407.71875 266.136719 411.621094 C 273.128906 415.652344 284.863281 411.507812 296.292969 401.523438 C 297.195312 400.734375 298.101562 399.894531 299.007812 399.019531 C 300.1875 400.152344 301.363281 401.222656 302.527344 402.230469 C 313.597656 411.753906 324.53125 415.597656 331.292969 411.6875 C 338.277344 407.644531 340.550781 395.40625 337.601562 380.523438 C 337.378906 379.382812 337.113281 378.222656 336.824219 377.042969 C 337.648438 376.800781 338.457031 376.542969 339.246094 376.285156 C 354.175781 371.335938 363.886719 363.34375 363.886719 355.167969 C 363.886719 347.324219 354.796875 339.742188 340.730469 334.898438 Z M 337.496094 371.003906 C 336.78125 371.238281 336.050781 371.46875 335.308594 371.6875 C 333.660156 366.472656 331.433594 360.925781 328.707031 355.191406 C 331.308594 349.597656 333.445312 344.121094 335.046875 338.9375 C 336.378906 339.324219 337.671875 339.730469 338.917969 340.160156 C 350.972656 344.308594 358.324219 350.441406 358.324219 355.167969 C 358.324219 360.195312 350.386719 366.734375 337.496094 371.003906 Z M 332.140625 381.601562 C 333.449219 388.183594 333.632812 394.132812 332.769531 398.789062 C 331.996094 402.96875 330.433594 405.753906 328.503906 406.871094 C 324.398438 409.246094 315.625 406.15625 306.160156 398.015625 C 305.074219 397.078125 303.976562 396.082031 302.882812 395.027344 C 306.550781 391.015625 310.222656 386.351562 313.800781 381.167969 C 320.09375 380.613281 326.042969 379.699219 331.441406 378.453125 C 331.703125 379.523438 331.9375 380.574219 332.140625 381.601562 Z M 278.054688 406.457031 C 274.042969 407.875 270.847656 407.917969 268.917969 406.804688 C 264.808594 404.433594 263.101562 395.289062 265.433594 383.023438 C 265.699219 381.621094 266.015625 380.175781 266.382812 378.703125 C 271.71875 379.882812 277.621094 380.730469 283.933594 381.238281 C 287.539062 386.3125 291.3125 390.96875 295.113281 395.050781 C 294.285156 395.851562 293.453125 396.617188 292.628906 397.332031 C 287.578125 401.753906 282.515625 404.886719 278.054688 406.457031 Z M 259.265625 370.976562 C 252.914062 368.804688 247.671875 365.984375 244.078125 362.902344 C 240.847656 360.140625 239.214844 357.394531 239.214844 355.167969 C 239.214844 350.425781 246.285156 344.375 258.078125 340.265625 C 259.507812 339.765625 261.007812 339.296875 262.5625 338.855469 C 264.191406 344.15625 266.328125 349.699219 268.910156 355.300781 C 266.292969 360.984375 264.125 366.617188 262.480469 371.980469 C 261.371094 371.660156 260.300781 371.328125 259.265625 370.976562 Z M 265.5625 328.117188 C 263.117188 315.609375 264.742188 306.175781 268.832031 303.808594 C 273.1875 301.289062 282.824219 304.882812 292.976562 313.898438 C 293.628906 314.472656 294.277344 315.078125 294.933594 315.699219 C 291.148438 319.761719 287.410156 324.386719 283.839844 329.429688 C 277.714844 329.996094 271.851562 330.90625 266.460938 332.128906 C 266.121094 330.765625 265.820312 329.425781 265.5625 328.117188 Z M 321.738281 341.984375 C 320.453125 339.761719 319.128906 337.585938 317.78125 335.472656 C 321.9375 336 325.914062 336.695312 329.65625 337.550781 C 328.535156 341.144531 327.136719 344.90625 325.488281 348.761719 C 324.308594 346.519531 323.058594 344.257812 321.738281 341.984375 Z M 298.832031 319.675781 C 301.398438 322.457031 303.96875 325.558594 306.496094 328.925781 C 303.949219 328.804688 301.367188 328.742188 298.769531 328.742188 C 296.195312 328.742188 293.636719 328.804688 291.101562 328.921875 C 293.632812 325.585938 296.226562 322.488281 298.832031 319.675781 Z M 275.773438 342.023438 C 274.488281 344.253906 273.261719 346.503906 272.097656 348.757812 C 270.480469 344.914062 269.09375 341.136719 267.960938 337.492188 C 271.675781 336.660156 275.640625 335.980469 279.769531 335.464844 C 278.398438 337.597656 277.066406 339.785156 275.773438 342.023438 Z M 279.886719 375.261719 C 275.621094 374.789062 271.597656 374.144531 267.882812 373.335938 C 269.035156 369.621094 270.449219 365.765625 272.105469 361.839844 C 273.269531 364.09375 274.5 366.339844 275.796875 368.578125 C 277.117188 370.859375 278.484375 373.085938 279.886719 375.261719 Z M 298.984375 391.046875 C 296.347656 388.203125 293.71875 385.054688 291.148438 381.671875 C 293.640625 381.769531 296.183594 381.820312 298.769531 381.820312 C 301.425781 381.820312 304.050781 381.757812 306.628906 381.644531 C 304.097656 385.089844 301.53125 388.242188 298.984375 391.046875 Z M 325.539062 361.640625 C 327.28125 365.609375 328.75 369.445312 329.914062 373.097656 C 326.140625 373.957031 322.058594 374.648438 317.765625 375.167969 C 319.121094 373.023438 320.453125 370.8125 321.765625 368.539062 C 323.09375 366.238281 324.347656 363.9375 325.539062 361.640625 Z M 316.941406 365.761719 C 314.90625 369.292969 312.816406 372.660156 310.695312 375.835938 C 306.832031 376.113281 302.839844 376.253906 298.769531 376.253906 C 294.714844 376.253906 290.773438 376.132812 286.976562 375.882812 C 284.769531 372.664062 282.632812 369.285156 280.613281 365.792969 C 278.59375 362.308594 276.738281 358.792969 275.054688 355.300781 C 276.738281 351.800781 278.589844 348.28125 280.59375 344.800781 L 280.59375 344.804688 C 282.605469 341.316406 284.722656 337.953125 286.910156 334.75 C 290.78125 334.457031 294.753906 334.304688 298.769531 334.304688 C 302.804688 334.304688 306.777344 334.460938 310.648438 334.753906 C 312.804688 337.933594 314.90625 341.285156 316.925781 344.773438 C 318.964844 348.300781 320.84375 351.792969 322.539062 355.222656 C 320.847656 358.707031 318.976562 362.238281 316.941406 365.761719 Z M 328.417969 303.640625 C 332.785156 306.15625 334.476562 316.296875 331.734375 329.597656 C 331.5625 330.445312 331.363281 331.308594 331.152344 332.183594 C 325.75 330.9375 319.882812 330.011719 313.742188 329.433594 C 310.160156 324.339844 306.453125 319.707031 302.726562 315.695312 C 303.730469 314.734375 304.730469 313.816406 305.722656 312.949219 C 315.339844 304.585938 324.328125 301.28125 328.417969 303.640625 Z M 298.769531 343.535156 C 305.191406 343.535156 310.398438 348.742188 310.398438 355.164062 C 310.398438 361.585938 305.191406 366.792969 298.769531 366.792969 C 292.347656 366.792969 287.140625 361.585938 287.140625 355.164062 C 287.140625 348.742188 292.347656 343.535156 298.769531 343.535156 Z M 298.769531 343.535156 " fill-opacity="1" fill-rule="nonzero"/></g><g fill="#000000" fill-opacity="1"><g transform="translate(166.560683, 274.702741)"><g><path d="M 15.515625 0 L 12.046875 0 L 12.046875 -7.09375 L 5.546875 -7.09375 L 5.546875 0 L 2.0625 0 L 2.0625 -16.421875 L 5.546875 -16.421875 L 5.546875 -9.984375 L 12.046875 -9.984375 L 12.046875 -16.421875 L 15.515625 -16.421875 Z M 15.515625 0 "/></g></g></g><g fill="#000000" fill-opacity="1"><g transform="translate(184.15285, 274.702741)"><g><path d="M 8.40625 0 L 4.921875 0 L 4.921875 -13.515625 L 0.453125 -13.515625 L 0.453125 -16.421875 L 12.859375 -16.421875 L 12.859375 -13.515625 L 8.40625 -13.515625 Z M 8.40625 0 "/></g></g></g><g fill="#000000" fill-opacity="1"><g transform="translate(197.467661, 274.702741)"><g><path d="M 9.015625 0 L 5.0625 -12.875 L 4.96875 -12.875 C 5.101562 -10.257812 5.171875 -8.515625 5.171875 -7.640625 L 5.171875 0 L 2.0625 0 L 2.0625 -16.421875 L 6.8125 -16.421875 L 10.6875 -3.859375 L 10.765625 -3.859375 L 14.875 -16.421875 L 19.625 -16.421875 L 19.625 0 L 16.375 0 L 16.375 -7.765625 C 16.375 -8.140625 16.378906 -8.566406 16.390625 -9.046875 C 16.398438 -9.523438 16.453125 -10.796875 16.546875 -12.859375 L 16.4375 -12.859375 L 12.203125 0 Z M 9.015625 0 "/></g></g></g><g fill="#000000" fill-opacity="1"><g transform="translate(219.146329, 274.702741)"><g><path d="M 2.0625 0 L 2.0625 -16.421875 L 5.546875 -16.421875 L 5.546875 -2.875 L 12.203125 -2.875 L 12.203125 0 Z M 2.0625 0 "/></g></g></g><g fill="#000000" fill-opacity="1"><g transform="translate(294.272098, 274.702624)"><g><path d="M 9.046875 -13.75 C 7.734375 -13.75 6.71875 -13.253906 6 -12.265625 C 5.28125 -11.285156 4.921875 -9.921875 4.921875 -8.171875 C 4.921875 -4.503906 6.296875 -2.671875 9.046875 -2.671875 C 10.191406 -2.671875 11.585938 -2.957031 13.234375 -3.53125 L 13.234375 -0.625 C 11.878906 -0.0625 10.375 0.21875 8.71875 0.21875 C 6.320312 0.21875 4.492188 -0.503906 3.234375 -1.953125 C 1.972656 -3.398438 1.34375 -5.476562 1.34375 -8.1875 C 1.34375 -9.894531 1.648438 -11.390625 2.265625 -12.671875 C 2.890625 -13.953125 3.78125 -14.9375 4.9375 -15.625 C 6.101562 -16.3125 7.472656 -16.65625 9.046875 -16.65625 C 10.640625 -16.65625 12.238281 -16.269531 13.84375 -15.5 L 12.71875 -12.671875 C 12.101562 -12.960938 11.484375 -13.210938 10.859375 -13.421875 C 10.242188 -13.640625 9.640625 -13.75 9.046875 -13.75 Z M 9.046875 -13.75 "/></g></g></g><g fill="#000000" fill-opacity="1"><g transform="translate(308.922881, 274.702624)"><g><path d="M 11.765625 -4.5625 C 11.765625 -3.082031 11.226562 -1.914062 10.15625 -1.0625 C 9.09375 -0.207031 7.609375 0.21875 5.703125 0.21875 C 3.953125 0.21875 2.40625 -0.109375 1.0625 -0.765625 L 1.0625 -4 C 2.164062 -3.5 3.097656 -3.148438 3.859375 -2.953125 C 4.628906 -2.753906 5.332031 -2.65625 5.96875 -2.65625 C 6.738281 -2.65625 7.328125 -2.800781 7.734375 -3.09375 C 8.140625 -3.382812 8.34375 -3.816406 8.34375 -4.390625 C 8.34375 -4.710938 8.253906 -5 8.078125 -5.25 C 7.898438 -5.5 7.632812 -5.738281 7.28125 -5.96875 C 6.9375 -6.207031 6.226562 -6.582031 5.15625 -7.09375 C 4.15625 -7.5625 3.398438 -8.007812 2.890625 -8.4375 C 2.390625 -8.875 1.988281 -9.378906 1.6875 -9.953125 C 1.394531 -10.535156 1.25 -11.210938 1.25 -11.984375 C 1.25 -13.429688 1.738281 -14.570312 2.71875 -15.40625 C 3.707031 -16.238281 5.070312 -16.65625 6.8125 -16.65625 C 7.664062 -16.65625 8.476562 -16.550781 9.25 -16.34375 C 10.019531 -16.144531 10.832031 -15.863281 11.6875 -15.5 L 10.5625 -12.796875 C 9.6875 -13.148438 8.960938 -13.394531 8.390625 -13.53125 C 7.816406 -13.675781 7.25 -13.75 6.6875 -13.75 C 6.03125 -13.75 5.523438 -13.597656 5.171875 -13.296875 C 4.828125 -12.992188 4.65625 -12.59375 4.65625 -12.09375 C 4.65625 -11.789062 4.722656 -11.523438 4.859375 -11.296875 C 5.003906 -11.066406 5.234375 -10.84375 5.546875 -10.625 C 5.859375 -10.414062 6.59375 -10.035156 7.75 -9.484375 C 9.28125 -8.742188 10.332031 -8.003906 10.90625 -7.265625 C 11.476562 -6.535156 11.765625 -5.632812 11.765625 -4.5625 Z M 11.765625 -4.5625 "/></g></g></g><g fill="#000000" fill-opacity="1"><g transform="translate(321.586546, 274.702624)"><g><path d="M 11.765625 -4.5625 C 11.765625 -3.082031 11.226562 -1.914062 10.15625 -1.0625 C 9.09375 -0.207031 7.609375 0.21875 5.703125 0.21875 C 3.953125 0.21875 2.40625 -0.109375 1.0625 -0.765625 L 1.0625 -4 C 2.164062 -3.5 3.097656 -3.148438 3.859375 -2.953125 C 4.628906 -2.753906 5.332031 -2.65625 5.96875 -2.65625 C 6.738281 -2.65625 7.328125 -2.800781 7.734375 -3.09375 C 8.140625 -3.382812 8.34375 -3.816406 8.34375 -4.390625 C 8.34375 -4.710938 8.253906 -5 8.078125 -5.25 C 7.898438 -5.5 7.632812 -5.738281 7.28125 -5.96875 C 6.9375 -6.207031 6.226562 -6.582031 5.15625 -7.09375 C 4.15625 -7.5625 3.398438 -8.007812 2.890625 -8.4375 C 2.390625 -8.875 1.988281 -9.378906 1.6875 -9.953125 C 1.394531 -10.535156 1.25 -11.210938 1.25 -11.984375 C 1.25 -13.429688 1.738281 -14.570312 2.71875 -15.40625 C 3.707031 -16.238281 5.070312 -16.65625 6.8125 -16.65625 C 7.664062 -16.65625 8.476562 -16.550781 9.25 -16.34375 C 10.019531 -16.144531 10.832031 -15.863281 11.6875 -15.5 L 10.5625 -12.796875 C 9.6875 -13.148438 8.960938 -13.394531 8.390625 -13.53125 C 7.816406 -13.675781 7.25 -13.75 6.6875 -13.75 C 6.03125 -13.75 5.523438 -13.597656 5.171875 -13.296875 C 4.828125 -12.992188 4.65625 -12.59375 4.65625 -12.09375 C 4.65625 -11.789062 4.722656 -11.523438 4.859375 -11.296875 C 5.003906 -11.066406 5.234375 -10.84375 5.546875 -10.625 C 5.859375 -10.414062 6.59375 -10.035156 7.75 -9.484375 C 9.28125 -8.742188 10.332031 -8.003906 10.90625 -7.265625 C 11.476562 -6.535156 11.765625 -5.632812 11.765625 -4.5625 Z M 11.765625 -4.5625 "/></g></g></g><g fill="#000000" fill-opacity="1"><g transform="translate(384.329018, 274.702681)"><g><path d="M 0.34375 4.828125 C -0.4375 4.828125 -1.117188 4.742188 -1.703125 4.578125 L -1.703125 1.6875 C -1.109375 1.832031 -0.5625 1.90625 -0.0625 1.90625 C 0.695312 1.90625 1.238281 1.664062 1.5625 1.1875 C 1.894531 0.71875 2.0625 -0.0195312 2.0625 -1.03125 L 2.0625 -16.421875 L 5.546875 -16.421875 L 5.546875 -1.0625 C 5.546875 0.851562 5.109375 2.3125 4.234375 3.3125 C 3.359375 4.320312 2.0625 4.828125 0.34375 4.828125 Z M 0.34375 4.828125 "/></g></g></g><g fill="#000000" fill-opacity="1"><g transform="translate(391.94069, 274.702681)"><g><path d="M 12.125 0 L 10.921875 -3.90625 L 4.9375 -3.90625 L 3.75 0 L 0 0 L 5.796875 -16.484375 L 10.046875 -16.484375 L 15.875 0 Z M 10.09375 -6.828125 C 9 -10.367188 8.378906 -12.367188 8.234375 -12.828125 C 8.097656 -13.296875 8 -13.664062 7.9375 -13.9375 C 7.6875 -12.976562 6.976562 -10.609375 5.8125 -6.828125 Z M 10.09375 -6.828125 "/></g></g></g><g fill="#000000" fill-opacity="1"><g transform="translate(407.803951, 274.702681)"><g><path d="M 11.4375 -16.421875 L 14.953125 -16.421875 L 9.359375 0 L 5.578125 0 L 0 -16.421875 L 3.515625 -16.421875 L 6.609375 -6.65625 C 6.773438 -6.070312 6.945312 -5.394531 7.125 -4.625 C 7.3125 -3.863281 7.429688 -3.332031 7.484375 -3.03125 C 7.566406 -3.71875 7.847656 -4.925781 8.328125 -6.65625 Z M 11.4375 -16.421875 "/></g></g></g><g fill="#000000" fill-opacity="1"><g transform="translate(422.746627, 274.702681)"><g><path d="M 12.125 0 L 10.921875 -3.90625 L 4.9375 -3.90625 L 3.75 0 L 0 0 L 5.796875 -16.484375 L 10.046875 -16.484375 L 15.875 0 Z M 10.09375 -6.828125 C 9 -10.367188 8.378906 -12.367188 8.234375 -12.828125 C 8.097656 -13.296875 8 -13.664062 7.9375 -13.9375 C 7.6875 -12.976562 6.976562 -10.609375 5.8125 -6.828125 Z M 10.09375 -6.828125 "/></g></g></g><g fill="#000000" fill-opacity="1"><g transform="translate(438.609888, 274.702681)"><g><path d="M 11.765625 -4.5625 C 11.765625 -3.082031 11.226562 -1.914062 10.15625 -1.0625 C 9.09375 -0.207031 7.609375 0.21875 5.703125 0.21875 C 3.953125 0.21875 2.40625 -0.109375 1.0625 -0.765625 L 1.0625 -4 C 2.164062 -3.5 3.097656 -3.148438 3.859375 -2.953125 C 4.628906 -2.753906 5.332031 -2.65625 5.96875 -2.65625 C 6.738281 -2.65625 7.328125 -2.800781 7.734375 -3.09375 C 8.140625 -3.382812 8.34375 -3.816406 8.34375 -4.390625 C 8.34375 -4.710938 8.253906 -5 8.078125 -5.25 C 7.898438 -5.5 7.632812 -5.738281 7.28125 -5.96875 C 6.9375 -6.207031 6.226562 -6.582031 5.15625 -7.09375 C 4.15625 -7.5625 3.398438 -8.007812 2.890625 -8.4375 C 2.390625 -8.875 1.988281 -9.378906 1.6875 -9.953125 C 1.394531 -10.535156 1.25 -11.210938 1.25 -11.984375 C 1.25 -13.429688 1.738281 -14.570312 2.71875 -15.40625 C 3.707031 -16.238281 5.070312 -16.65625 6.8125 -16.65625 C 7.664062 -16.65625 8.476562 -16.550781 9.25 -16.34375 C 10.019531 -16.144531 10.832031 -15.863281 11.6875 -15.5 L 10.5625 -12.796875 C 9.6875 -13.148438 8.960938 -13.394531 8.390625 -13.53125 C 7.816406 -13.675781 7.25 -13.75 6.6875 -13.75 C 6.03125 -13.75 5.523438 -13.597656 5.171875 -13.296875 C 4.828125 -12.992188 4.65625 -12.59375 4.65625 -12.09375 C 4.65625 -11.789062 4.722656 -11.523438 4.859375 -11.296875 C 5.003906 -11.066406 5.234375 -10.84375 5.546875 -10.625 C 5.859375 -10.414062 6.59375 -10.035156 7.75 -9.484375 C 9.28125 -8.742188 10.332031 -8.003906 10.90625 -7.265625 C 11.476562 -6.535156 11.765625 -5.632812 11.765625 -4.5625 Z M 11.765625 -4.5625 "/></g></g></g><g fill="#000000" fill-opacity="1"><g transform="translate(451.273553, 274.702681)"><g><path d="M 9.046875 -13.75 C 7.734375 -13.75 6.71875 -13.253906 6 -12.265625 C 5.28125 -11.285156 4.921875 -9.921875 4.921875 -8.171875 C 4.921875 -4.503906 6.296875 -2.671875 9.046875 -2.671875 C 10.191406 -2.671875 11.585938 -2.957031 13.234375 -3.53125 L 13.234375 -0.625 C 11.878906 -0.0625 10.375 0.21875 8.71875 0.21875 C 6.320312 0.21875 4.492188 -0.503906 3.234375 -1.953125 C 1.972656 -3.398438 1.34375 -5.476562 1.34375 -8.1875 C 1.34375 -9.894531 1.648438 -11.390625 2.265625 -12.671875 C 2.890625 -13.953125 3.78125 -14.9375 4.9375 -15.625 C 6.101562 -16.3125 7.472656 -16.65625 9.046875 -16.65625 C 10.640625 -16.65625 12.238281 -16.269531 13.84375 -15.5 L 12.71875 -12.671875 C 12.101562 -12.960938 11.484375 -13.210938 10.859375 -13.421875 C 10.242188 -13.640625 9.640625 -13.75 9.046875 -13.75 Z M 9.046875 -13.75 "/></g></g></g><g fill="#000000" fill-opacity="1"><g transform="translate(465.924336, 274.702681)"><g><path d="M 5.546875 -9.125 L 6.671875 -9.125 C 7.773438 -9.125 8.585938 -9.304688 9.109375 -9.671875 C 9.628906 -10.046875 9.890625 -10.625 9.890625 -11.40625 C 9.890625 -12.1875 9.617188 -12.738281 9.078125 -13.0625 C 8.546875 -13.394531 7.722656 -13.5625 6.609375 -13.5625 L 5.546875 -13.5625 Z M 5.546875 -6.296875 L 5.546875 0 L 2.0625 0 L 2.0625 -16.421875 L 6.84375 -16.421875 C 9.082031 -16.421875 10.734375 -16.015625 11.796875 -15.203125 C 12.867188 -14.390625 13.40625 -13.15625 13.40625 -11.5 C 13.40625 -10.53125 13.140625 -9.671875 12.609375 -8.921875 C 12.078125 -8.171875 11.328125 -7.582031 10.359375 -7.15625 C 12.828125 -3.46875 14.4375 -1.082031 15.1875 0 L 11.328125 0 L 7.40625 -6.296875 Z M 5.546875 -6.296875 "/></g></g></g><g fill="#000000" fill-opacity="1"><g transform="translate(481.102772, 274.702681)"><g><path d="M 2.0625 0 L 2.0625 -16.421875 L 5.546875 -16.421875 L 5.546875 0 Z M 2.0625 0 "/></g></g></g><g fill="#000000" fill-opacity="1"><g transform="translate(488.714443, 274.702681)"><g><path d="M 5.546875 -8.6875 L 6.6875 -8.6875 C 7.757812 -8.6875 8.5625 -8.898438 9.09375 -9.328125 C 9.625 -9.753906 9.890625 -10.367188 9.890625 -11.171875 C 9.890625 -11.992188 9.664062 -12.597656 9.21875 -12.984375 C 8.78125 -13.367188 8.082031 -13.5625 7.125 -13.5625 L 5.546875 -13.5625 Z M 13.40625 -11.296875 C 13.40625 -9.523438 12.851562 -8.171875 11.75 -7.234375 C 10.644531 -6.304688 9.078125 -5.84375 7.046875 -5.84375 L 5.546875 -5.84375 L 5.546875 0 L 2.0625 0 L 2.0625 -16.421875 L 7.3125 -16.421875 C 9.300781 -16.421875 10.8125 -15.988281 11.84375 -15.125 C 12.882812 -14.269531 13.40625 -12.992188 13.40625 -11.296875 Z M 13.40625 -11.296875 "/></g></g></g><g fill="#000000" fill-opacity="1"><g transform="translate(503.151919, 274.702681)"><g><path d="M 8.40625 0 L 4.921875 0 L 4.921875 -13.515625 L 0.453125 -13.515625 L 0.453125 -16.421875 L 12.859375 -16.421875 L 12.859375 -13.515625 L 8.40625 -13.515625 Z M 8.40625 0 "/></g></g></g><g fill="#000000" fill-opacity="1"><g transform="translate(523.606784, 274.702681)"><g><path d="M 2.0625 -16.421875 L 7.171875 -16.421875 C 9.503906 -16.421875 11.195312 -16.085938 12.25 -15.421875 C 13.300781 -14.765625 13.828125 -13.710938 13.828125 -12.265625 C 13.828125 -11.285156 13.59375 -10.476562 13.125 -9.84375 C 12.664062 -9.21875 12.054688 -8.84375 11.296875 -8.71875 L 11.296875 -8.609375 C 12.335938 -8.367188 13.085938 -7.929688 13.546875 -7.296875 C 14.003906 -6.660156 14.234375 -5.816406 14.234375 -4.765625 C 14.234375 -3.265625 13.691406 -2.09375 12.609375 -1.25 C 11.535156 -0.414062 10.066406 0 8.203125 0 L 2.0625 0 Z M 5.546875 -9.921875 L 7.5625 -9.921875 C 8.507812 -9.921875 9.191406 -10.066406 9.609375 -10.359375 C 10.035156 -10.648438 10.25 -11.128906 10.25 -11.796875 C 10.25 -12.429688 10.019531 -12.882812 9.5625 -13.15625 C 9.101562 -13.425781 8.375 -13.5625 7.375 -13.5625 L 5.546875 -13.5625 Z M 5.546875 -7.15625 L 5.546875 -2.875 L 7.8125 -2.875 C 8.769531 -2.875 9.476562 -3.054688 9.9375 -3.421875 C 10.394531 -3.785156 10.625 -4.347656 10.625 -5.109375 C 10.625 -6.472656 9.648438 -7.15625 7.703125 -7.15625 Z M 5.546875 -7.15625 "/></g></g></g><g fill="#000000" fill-opacity="1"><g transform="translate(539.054659, 274.702681)"><g><path d="M 16.96875 -8.234375 C 16.96875 -5.515625 16.289062 -3.425781 14.9375 -1.96875 C 13.59375 -0.507812 11.664062 0.21875 9.15625 0.21875 C 6.632812 0.21875 4.703125 -0.507812 3.359375 -1.96875 C 2.015625 -3.425781 1.34375 -5.519531 1.34375 -8.25 C 1.34375 -10.988281 2.015625 -13.078125 3.359375 -14.515625 C 4.710938 -15.953125 6.648438 -16.671875 9.171875 -16.671875 C 11.691406 -16.671875 13.617188 -15.941406 14.953125 -14.484375 C 16.296875 -13.035156 16.96875 -10.953125 16.96875 -8.234375 Z M 4.984375 -8.234375 C 4.984375 -6.398438 5.332031 -5.019531 6.03125 -4.09375 C 6.726562 -3.164062 7.769531 -2.703125 9.15625 -2.703125 C 11.925781 -2.703125 13.3125 -4.546875 13.3125 -8.234375 C 13.3125 -11.929688 11.929688 -13.78125 9.171875 -13.78125 C 7.785156 -13.78125 6.738281 -13.3125 6.03125 -12.375 C 5.332031 -11.445312 4.984375 -10.066406 4.984375 -8.234375 Z M 4.984375 -8.234375 "/></g></g></g><g fill="#000000" fill-opacity="1"><g transform="translate(557.354104, 274.702681)"><g><path d="M 16.96875 -8.234375 C 16.96875 -5.515625 16.289062 -3.425781 14.9375 -1.96875 C 13.59375 -0.507812 11.664062 0.21875 9.15625 0.21875 C 6.632812 0.21875 4.703125 -0.507812 3.359375 -1.96875 C 2.015625 -3.425781 1.34375 -5.519531 1.34375 -8.25 C 1.34375 -10.988281 2.015625 -13.078125 3.359375 -14.515625 C 4.710938 -15.953125 6.648438 -16.671875 9.171875 -16.671875 C 11.691406 -16.671875 13.617188 -15.941406 14.953125 -14.484375 C 16.296875 -13.035156 16.96875 -10.953125 16.96875 -8.234375 Z M 4.984375 -8.234375 C 4.984375 -6.398438 5.332031 -5.019531 6.03125 -4.09375 C 6.726562 -3.164062 7.769531 -2.703125 9.15625 -2.703125 C 11.925781 -2.703125 13.3125 -4.546875 13.3125 -8.234375 C 13.3125 -11.929688 11.929688 -13.78125 9.171875 -13.78125 C 7.785156 -13.78125 6.738281 -13.3125 6.03125 -12.375 C 5.332031 -11.445312 4.984375 -10.066406 4.984375 -8.234375 Z M 4.984375 -8.234375 "/></g></g></g><g fill="#000000" fill-opacity="1"><g transform="translate(575.653549, 274.702681)"><g><path d="M 8.40625 0 L 4.921875 0 L 4.921875 -13.515625 L 0.453125 -13.515625 L 0.453125 -16.421875 L 12.859375 -16.421875 L 12.859375 -13.515625 L 8.40625 -13.515625 Z M 8.40625 0 "/></g></g></g><g fill="#000000" fill-opacity="1"><g transform="translate(588.96836, 274.702681)"><g><path d="M 11.765625 -4.5625 C 11.765625 -3.082031 11.226562 -1.914062 10.15625 -1.0625 C 9.09375 -0.207031 7.609375 0.21875 5.703125 0.21875 C 3.953125 0.21875 2.40625 -0.109375 1.0625 -0.765625 L 1.0625 -4 C 2.164062 -3.5 3.097656 -3.148438 3.859375 -2.953125 C 4.628906 -2.753906 5.332031 -2.65625 5.96875 -2.65625 C 6.738281 -2.65625 7.328125 -2.800781 7.734375 -3.09375 C 8.140625 -3.382812 8.34375 -3.816406 8.34375 -4.390625 C 8.34375 -4.710938 8.253906 -5 8.078125 -5.25 C 7.898438 -5.5 7.632812 -5.738281 7.28125 -5.96875 C 6.9375 -6.207031 6.226562 -6.582031 5.15625 -7.09375 C 4.15625 -7.5625 3.398438 -8.007812 2.890625 -8.4375 C 2.390625 -8.875 1.988281 -9.378906 1.6875 -9.953125 C 1.394531 -10.535156 1.25 -11.210938 1.25 -11.984375 C 1.25 -13.429688 1.738281 -14.570312 2.71875 -15.40625 C 3.707031 -16.238281 5.070312 -16.65625 6.8125 -16.65625 C 7.664062 -16.65625 8.476562 -16.550781 9.25 -16.34375 C 10.019531 -16.144531 10.832031 -15.863281 11.6875 -15.5 L 10.5625 -12.796875 C 9.6875 -13.148438 8.960938 -13.394531 8.390625 -13.53125 C 7.816406 -13.675781 7.25 -13.75 6.6875 -13.75 C 6.03125 -13.75 5.523438 -13.597656 5.171875 -13.296875 C 4.828125 -12.992188 4.65625 -12.59375 4.65625 -12.09375 C 4.65625 -11.789062 4.722656 -11.523438 4.859375 -11.296875 C 5.003906 -11.066406 5.234375 -10.84375 5.546875 -10.625 C 5.859375 -10.414062 6.59375 -10.035156 7.75 -9.484375 C 9.28125 -8.742188 10.332031 -8.003906 10.90625 -7.265625 C 11.476562 -6.535156 11.765625 -5.632812 11.765625 -4.5625 Z M 11.765625 -4.5625 "/></g></g></g><g fill="#000000" fill-opacity="1"><g transform="translate(601.632025, 274.702681)"><g><path d="M 8.40625 0 L 4.921875 0 L 4.921875 -13.515625 L 0.453125 -13.515625 L 0.453125 -16.421875 L 12.859375 -16.421875 L 12.859375 -13.515625 L 8.40625 -13.515625 Z M 8.40625 0 "/></g></g></g><g fill="#000000" fill-opacity="1"><g transform="translate(614.946836, 274.702681)"><g><path d="M 5.546875 -9.125 L 6.671875 -9.125 C 7.773438 -9.125 8.585938 -9.304688 9.109375 -9.671875 C 9.628906 -10.046875 9.890625 -10.625 9.890625 -11.40625 C 9.890625 -12.1875 9.617188 -12.738281 9.078125 -13.0625 C 8.546875 -13.394531 7.722656 -13.5625 6.609375 -13.5625 L 5.546875 -13.5625 Z M 5.546875 -6.296875 L 5.546875 0 L 2.0625 0 L 2.0625 -16.421875 L 6.84375 -16.421875 C 9.082031 -16.421875 10.734375 -16.015625 11.796875 -15.203125 C 12.867188 -14.390625 13.40625 -13.15625 13.40625 -11.5 C 13.40625 -10.53125 13.140625 -9.671875 12.609375 -8.921875 C 12.078125 -8.171875 11.328125 -7.582031 10.359375 -7.15625 C 12.828125 -3.46875 14.4375 -1.082031 15.1875 0 L 11.328125 0 L 7.40625 -6.296875 Z M 5.546875 -6.296875 "/></g></g></g><g fill="#000000" fill-opacity="1"><g transform="translate(630.125271, 274.702681)"><g><path d="M 12.125 0 L 10.921875 -3.90625 L 4.9375 -3.90625 L 3.75 0 L 0 0 L 5.796875 -16.484375 L 10.046875 -16.484375 L 15.875 0 Z M 10.09375 -6.828125 C 9 -10.367188 8.378906 -12.367188 8.234375 -12.828125 C 8.097656 -13.296875 8 -13.664062 7.9375 -13.9375 C 7.6875 -12.976562 6.976562 -10.609375 5.8125 -6.828125 Z M 10.09375 -6.828125 "/></g></g></g><g fill="#000000" fill-opacity="1"><g transform="translate(645.988533, 274.702681)"><g><path d="M 5.546875 -8.6875 L 6.6875 -8.6875 C 7.757812 -8.6875 8.5625 -8.898438 9.09375 -9.328125 C 9.625 -9.753906 9.890625 -10.367188 9.890625 -11.171875 C 9.890625 -11.992188 9.664062 -12.597656 9.21875 -12.984375 C 8.78125 -13.367188 8.082031 -13.5625 7.125 -13.5625 L 5.546875 -13.5625 Z M 13.40625 -11.296875 C 13.40625 -9.523438 12.851562 -8.171875 11.75 -7.234375 C 10.644531 -6.304688 9.078125 -5.84375 7.046875 -5.84375 L 5.546875 -5.84375 L 5.546875 0 L 2.0625 0 L 2.0625 -16.421875 L 7.3125 -16.421875 C 9.300781 -16.421875 10.8125 -15.988281 11.84375 -15.125 C 12.882812 -14.269531 13.40625 -12.992188 13.40625 -11.296875 Z M 13.40625 -11.296875 "/></g></g></g><g fill="#000000" fill-opacity="1"><g transform="translate(249.639542, 453.767925)"><g><path d="M 5.546875 -9.125 L 6.671875 -9.125 C 7.773438 -9.125 8.585938 -9.304688 9.109375 -9.671875 C 9.628906 -10.046875 9.890625 -10.625 9.890625 -11.40625 C 9.890625 -12.1875 9.617188 -12.738281 9.078125 -13.0625 C 8.546875 -13.394531 7.722656 -13.5625 6.609375 -13.5625 L 5.546875 -13.5625 Z M 5.546875 -6.296875 L 5.546875 0 L 2.0625 0 L 2.0625 -16.421875 L 6.84375 -16.421875 C 9.082031 -16.421875 10.734375 -16.015625 11.796875 -15.203125 C 12.867188 -14.390625 13.40625 -13.15625 13.40625 -11.5 C 13.40625 -10.53125 13.140625 -9.671875 12.609375 -8.921875 C 12.078125 -8.171875 11.328125 -7.582031 10.359375 -7.15625 C 12.828125 -3.46875 14.4375 -1.082031 15.1875 0 L 11.328125 0 L 7.40625 -6.296875 Z M 5.546875 -6.296875 "/></g></g></g><g fill="#000000" fill-opacity="1"><g transform="translate(264.817978, 453.767925)"><g><path d="M 11.515625 0 L 2.0625 0 L 2.0625 -16.421875 L 11.515625 -16.421875 L 11.515625 -13.5625 L 5.546875 -13.5625 L 5.546875 -9.96875 L 11.109375 -9.96875 L 11.109375 -7.109375 L 5.546875 -7.109375 L 5.546875 -2.875 L 11.515625 -2.875 Z M 11.515625 0 "/></g></g></g><g fill="#000000" fill-opacity="1"><g transform="translate(277.694949, 453.767925)"><g><path d="M 12.125 0 L 10.921875 -3.90625 L 4.9375 -3.90625 L 3.75 0 L 0 0 L 5.796875 -16.484375 L 10.046875 -16.484375 L 15.875 0 Z M 10.09375 -6.828125 C 9 -10.367188 8.378906 -12.367188 8.234375 -12.828125 C 8.097656 -13.296875 8 -13.664062 7.9375 -13.9375 C 7.6875 -12.976562 6.976562 -10.609375 5.8125 -6.828125 Z M 10.09375 -6.828125 "/></g></g></g><g fill="#000000" fill-opacity="1"><g transform="translate(293.558211, 453.767925)"><g><path d="M 9.046875 -13.75 C 7.734375 -13.75 6.71875 -13.253906 6 -12.265625 C 5.28125 -11.285156 4.921875 -9.921875 4.921875 -8.171875 C 4.921875 -4.503906 6.296875 -2.671875 9.046875 -2.671875 C 10.191406 -2.671875 11.585938 -2.957031 13.234375 -3.53125 L 13.234375 -0.625 C 11.878906 -0.0625 10.375 0.21875 8.71875 0.21875 C 6.320312 0.21875 4.492188 -0.503906 3.234375 -1.953125 C 1.972656 -3.398438 1.34375 -5.476562 1.34375 -8.1875 C 1.34375 -9.894531 1.648438 -11.390625 2.265625 -12.671875 C 2.890625 -13.953125 3.78125 -14.9375 4.9375 -15.625 C 6.101562 -16.3125 7.472656 -16.65625 9.046875 -16.65625 C 10.640625 -16.65625 12.238281 -16.269531 13.84375 -15.5 L 12.71875 -12.671875 C 12.101562 -12.960938 11.484375 -13.210938 10.859375 -13.421875 C 10.242188 -13.640625 9.640625 -13.75 9.046875 -13.75 Z M 9.046875 -13.75 "/></g></g></g><g fill="#000000" fill-opacity="1"><g transform="translate(308.208993, 453.767925)"><g><path d="M 8.40625 0 L 4.921875 0 L 4.921875 -13.515625 L 0.453125 -13.515625 L 0.453125 -16.421875 L 12.859375 -16.421875 L 12.859375 -13.515625 L 8.40625 -13.515625 Z M 8.40625 0 "/></g></g></g><g fill="#000000" fill-opacity="1"><g transform="translate(321.523804, 453.767925)"><g/></g></g><g fill="#000000" fill-opacity="1"><g transform="translate(327.496384, 453.767925)"><g><path d="M 0.34375 4.828125 C -0.4375 4.828125 -1.117188 4.742188 -1.703125 4.578125 L -1.703125 1.6875 C -1.109375 1.832031 -0.5625 1.90625 -0.0625 1.90625 C 0.695312 1.90625 1.238281 1.664062 1.5625 1.1875 C 1.894531 0.71875 2.0625 -0.0195312 2.0625 -1.03125 L 2.0625 -16.421875 L 5.546875 -16.421875 L 5.546875 -1.0625 C 5.546875 0.851562 5.109375 2.3125 4.234375 3.3125 C 3.359375 4.320312 2.0625 4.828125 0.34375 4.828125 Z M 0.34375 4.828125 "/></g></g></g><g fill="#000000" fill-opacity="1"><g transform="translate(335.108055, 453.767925)"><g><path d="M 11.765625 -4.5625 C 11.765625 -3.082031 11.226562 -1.914062 10.15625 -1.0625 C 9.09375 -0.207031 7.609375 0.21875 5.703125 0.21875 C 3.953125 0.21875 2.40625 -0.109375 1.0625 -0.765625 L 1.0625 -4 C 2.164062 -3.5 3.097656 -3.148438 3.859375 -2.953125 C 4.628906 -2.753906 5.332031 -2.65625 5.96875 -2.65625 C 6.738281 -2.65625 7.328125 -2.800781 7.734375 -3.09375 C 8.140625 -3.382812 8.34375 -3.816406 8.34375 -4.390625 C 8.34375 -4.710938 8.253906 -5 8.078125 -5.25 C 7.898438 -5.5 7.632812 -5.738281 7.28125 -5.96875 C 6.9375 -6.207031 6.226562 -6.582031 5.15625 -7.09375 C 4.15625 -7.5625 3.398438 -8.007812 2.890625 -8.4375 C 2.390625 -8.875 1.988281 -9.378906 1.6875 -9.953125 C 1.394531 -10.535156 1.25 -11.210938 1.25 -11.984375 C 1.25 -13.429688 1.738281 -14.570312 2.71875 -15.40625 C 3.707031 -16.238281 5.070312 -16.65625 6.8125 -16.65625 C 7.664062 -16.65625 8.476562 -16.550781 9.25 -16.34375 C 10.019531 -16.144531 10.832031 -15.863281 11.6875 -15.5 L 10.5625 -12.796875 C 9.6875 -13.148438 8.960938 -13.394531 8.390625 -13.53125 C 7.816406 -13.675781 7.25 -13.75 6.6875 -13.75 C 6.03125 -13.75 5.523438 -13.597656 5.171875 -13.296875 C 4.828125 -12.992188 4.65625 -12.59375 4.65625 -12.09375 C 4.65625 -11.789062 4.722656 -11.523438 4.859375 -11.296875 C 5.003906 -11.066406 5.234375 -10.84375 5.546875 -10.625 C 5.859375 -10.414062 6.59375 -10.035156 7.75 -9.484375 C 9.28125 -8.742188 10.332031 -8.003906 10.90625 -7.265625 C 11.476562 -6.535156 11.765625 -5.632812 11.765625 -4.5625 Z M 11.765625 -4.5625 "/></g></g></g><g fill="#000000" fill-opacity="1"><g transform="translate(446.739228, 453.767925)"><g><path d="M 11.4375 -16.421875 L 14.953125 -16.421875 L 9.359375 0 L 5.578125 0 L 0 -16.421875 L 3.515625 -16.421875 L 6.609375 -6.65625 C 6.773438 -6.070312 6.945312 -5.394531 7.125 -4.625 C 7.3125 -3.863281 7.429688 -3.332031 7.484375 -3.03125 C 7.566406 -3.71875 7.847656 -4.925781 8.328125 -6.65625 Z M 11.4375 -16.421875 "/></g></g></g><g fill="#000000" fill-opacity="1"><g transform="translate(461.681904, 453.767925)"><g><path d="M 15.4375 -16.421875 L 15.4375 -5.796875 C 15.4375 -4.578125 15.160156 -3.507812 14.609375 -2.59375 C 14.066406 -1.6875 13.28125 -0.988281 12.25 -0.5 C 11.226562 -0.0195312 10.019531 0.21875 8.625 0.21875 C 6.507812 0.21875 4.867188 -0.316406 3.703125 -1.390625 C 2.535156 -2.472656 1.953125 -3.957031 1.953125 -5.84375 L 1.953125 -16.421875 L 5.421875 -16.421875 L 5.421875 -6.375 C 5.421875 -5.101562 5.675781 -4.171875 6.1875 -3.578125 C 6.695312 -2.992188 7.539062 -2.703125 8.71875 -2.703125 C 9.851562 -2.703125 10.675781 -3 11.1875 -3.59375 C 11.695312 -4.1875 11.953125 -5.117188 11.953125 -6.390625 L 11.953125 -16.421875 Z M 15.4375 -16.421875 "/></g></g></g><g fill="#000000" fill-opacity="1"><g transform="translate(479.060763, 453.767925)"><g><path d="M 11.515625 0 L 2.0625 0 L 2.0625 -16.421875 L 11.515625 -16.421875 L 11.515625 -13.5625 L 5.546875 -13.5625 L 5.546875 -9.96875 L 11.109375 -9.96875 L 11.109375 -7.109375 L 5.546875 -7.109375 L 5.546875 -2.875 L 11.515625 -2.875 Z M 11.515625 0 "/></g></g></g><g fill="#000000" fill-opacity="1"><g transform="translate(491.937735, 453.767925)"><g><path d="M 0.6875 -4.765625 L 0.6875 -7.5625 L 6.71875 -7.5625 L 6.71875 -4.765625 Z M 0.6875 -4.765625 "/></g></g></g><g fill="#000000" fill-opacity="1"><g transform="translate(499.336099, 453.767925)"><g><path d="M 0.34375 4.828125 C -0.4375 4.828125 -1.117188 4.742188 -1.703125 4.578125 L -1.703125 1.6875 C -1.109375 1.832031 -0.5625 1.90625 -0.0625 1.90625 C 0.695312 1.90625 1.238281 1.664062 1.5625 1.1875 C 1.894531 0.71875 2.0625 -0.0195312 2.0625 -1.03125 L 2.0625 -16.421875 L 5.546875 -16.421875 L 5.546875 -1.0625 C 5.546875 0.851562 5.109375 2.3125 4.234375 3.3125 C 3.359375 4.320312 2.0625 4.828125 0.34375 4.828125 Z M 0.34375 4.828125 "/></g></g></g><g fill="#000000" fill-opacity="1"><g transform="translate(506.94777, 453.767925)"><g><path d="M 11.765625 -4.5625 C 11.765625 -3.082031 11.226562 -1.914062 10.15625 -1.0625 C 9.09375 -0.207031 7.609375 0.21875 5.703125 0.21875 C 3.953125 0.21875 2.40625 -0.109375 1.0625 -0.765625 L 1.0625 -4 C 2.164062 -3.5 3.097656 -3.148438 3.859375 -2.953125 C 4.628906 -2.753906 5.332031 -2.65625 5.96875 -2.65625 C 6.738281 -2.65625 7.328125 -2.800781 7.734375 -3.09375 C 8.140625 -3.382812 8.34375 -3.816406 8.34375 -4.390625 C 8.34375 -4.710938 8.253906 -5 8.078125 -5.25 C 7.898438 -5.5 7.632812 -5.738281 7.28125 -5.96875 C 6.9375 -6.207031 6.226562 -6.582031 5.15625 -7.09375 C 4.15625 -7.5625 3.398438 -8.007812 2.890625 -8.4375 C 2.390625 -8.875 1.988281 -9.378906 1.6875 -9.953125 C 1.394531 -10.535156 1.25 -11.210938 1.25 -11.984375 C 1.25 -13.429688 1.738281 -14.570312 2.71875 -15.40625 C 3.707031 -16.238281 5.070312 -16.65625 6.8125 -16.65625 C 7.664062 -16.65625 8.476562 -16.550781 9.25 -16.34375 C 10.019531 -16.144531 10.832031 -15.863281 11.6875 -15.5 L 10.5625 -12.796875 C 9.6875 -13.148438 8.960938 -13.394531 8.390625 -13.53125 C 7.816406 -13.675781 7.25 -13.75 6.6875 -13.75 C 6.03125 -13.75 5.523438 -13.597656 5.171875 -13.296875 C 4.828125 -12.992188 4.65625 -12.59375 4.65625 -12.09375 C 4.65625 -11.789062 4.722656 -11.523438 4.859375 -11.296875 C 5.003906 -11.066406 5.234375 -10.84375 5.546875 -10.625 C 5.859375 -10.414062 6.59375 -10.035156 7.75 -9.484375 C 9.28125 -8.742188 10.332031 -8.003906 10.90625 -7.265625 C 11.476562 -6.535156 11.765625 -5.632812 11.765625 -4.5625 Z M 11.765625 -4.5625 "/></g></g></g><path stroke-linecap="butt" transform="matrix(4.617187, 0, 0, 4.617187, 314.45026, 508.459266)" fill="none" stroke-linejoin="miter" d="M 5.999775 6.000362 L 25.999776 6.000362 L 25.999776 26.000364 L 5.999775 26.000364 Z M 5.999775 6.000362 " stroke="#000000" stroke-width="2" stroke-opacity="1" stroke-miterlimit="10"/><path stroke-linecap="butt" transform="matrix(4.617187, 0, 0, 4.617187, 314.45026, 508.459266)" fill="none" stroke-linejoin="miter" d="M 12.999775 16.000363 L 12.333108 16.000363 " stroke="#000000" stroke-width="2" stroke-opacity="1" stroke-miterlimit="10"/><g clip-path="url(#196bfa7f65)"><path stroke-linecap="butt" transform="matrix(4.617187, 0, 0, 4.617187, 314.45026, 508.459266)" fill="none" stroke-linejoin="miter" d="M 10.999775 16.000363 L 12.999775 16.000363 C 14.104682 16.000363 14.999775 15.10527 14.999775 14.000363 C 14.999775 12.89461 14.104682 12.000363 12.999775 12.000363 L 10.999775 12.000363 L 10.999775 21.000363 " stroke="#000000" stroke-width="2" stroke-opacity="1" stroke-miterlimit="10"/><path stroke-linecap="butt" transform="matrix(4.617187, 0, 0, 4.617187, 314.45026, 508.459266)" fill="none" stroke-linejoin="miter" d="M 20.999776 15.408146 C 20.999776 14.755862 20.530233 14.000363 19.499776 14.000363 C 18.672364 14.000363 17.999776 14.672106 17.999776 15.500363 C 17.999776 16.327774 18.672364 17.000363 19.499776 17.000363 C 20.328033 17.000363 20.999776 17.672106 20.999776 18.500363 C 20.999776 19.327774 20.423634 20.000363 19.499776 20.000363 C 18.395715 20.000363 17.999776 19.427605 17.999776 18.618806 " stroke="#000000" stroke-width="2" stroke-opacity="1" stroke-miterlimit="10"/></g><g clip-path="url(#69b683b94a)"><path fill="#000000" d="M 250.980469 531.609375 C 240.261719 531.609375 231.574219 540.285156 231.574219 550.984375 C 231.574219 557.511719 234.808594 563.289062 239.765625 566.796875 C 234.808594 570.308594 231.574219 576.082031 231.574219 582.613281 C 231.574219 589.140625 234.808594 594.917969 239.765625 598.425781 C 234.808594 601.9375 231.574219 607.710938 231.574219 614.242188 C 231.574219 624.941406 240.261719 633.613281 250.980469 633.613281 C 261.695312 633.613281 270.386719 624.941406 270.386719 614.242188 L 270.386719 597.617188 C 273.730469 600.347656 278.003906 601.984375 282.664062 601.984375 C 293.382812 601.984375 302.070312 593.3125 302.070312 582.613281 C 302.070312 576.082031 298.832031 570.308594 293.875 566.796875 C 298.832031 563.289062 302.070312 557.511719 302.070312 550.984375 C 302.070312 540.285156 293.382812 531.609375 282.664062 531.609375 Z M 263.257812 594.867188 L 250.980469 594.867188 C 244.199219 594.867188 238.703125 589.382812 238.703125 582.613281 C 238.703125 575.84375 244.199219 570.355469 250.980469 570.355469 L 263.257812 570.355469 Z M 250.980469 563.238281 L 263.257812 563.238281 L 263.257812 538.726562 L 250.980469 538.726562 C 244.199219 538.726562 238.703125 544.214844 238.703125 550.984375 C 238.703125 557.753906 244.199219 563.238281 250.980469 563.238281 Z M 294.941406 550.984375 C 294.941406 557.75 289.449219 563.234375 282.675781 563.238281 L 270.386719 563.238281 L 270.386719 538.726562 L 282.664062 538.726562 C 289.445312 538.726562 294.941406 544.214844 294.941406 550.984375 Z M 270.386719 582.597656 C 270.394531 575.839844 275.878906 570.363281 282.648438 570.355469 L 282.675781 570.355469 C 289.449219 570.363281 294.941406 575.847656 294.941406 582.613281 C 294.941406 589.382812 289.445312 594.867188 282.664062 594.867188 C 275.886719 594.867188 270.394531 589.390625 270.386719 582.628906 Z M 250.980469 601.984375 C 244.199219 601.984375 238.703125 607.472656 238.703125 614.242188 C 238.703125 621.011719 244.199219 626.496094 250.980469 626.496094 C 257.757812 626.496094 263.257812 621.011719 263.257812 614.242188 L 263.257812 601.984375 Z M 250.980469 601.984375 " fill-opacity="1" fill-rule="evenodd"/></g><g clip-path="url(#ef775bce74)"><g clip-path="url(#92cd5a8516)"><path fill="#000000" d="M 462.492188 531.617188 L 564.21875 531.617188 L 564.21875 633.34375 L 462.492188 633.34375 Z M 462.492188 531.617188 " fill-opacity="1" fill-rule="nonzero"/></g></g><g clip-path="url(#5fb5e6fe9b)"><g clip-path="url(#9f63883768)"><path fill="#ffcb46" d="M 470.003906 539.128906 L 556.703125 539.128906 L 556.703125 625.828125 L 470.003906 625.828125 Z M 470.003906 539.128906 " fill-opacity="1" fill-rule="nonzero"/></g></g><g fill="#000000" fill-opacity="1"><g transform="translate(489.932451, 608.242515)"><g><path d="M 18.378906 8.695312 C 18.59375 8.625 18.804688 8.625 19.015625 8.484375 C 21.066406 8.269531 23.1875 8.199219 25.660156 6.148438 C 26.582031 5.371094 27.570312 4.3125 28.699219 3.179688 L 29.832031 1.554688 C 31.742188 0.351562 32.304688 -0.707031 34.074219 -3.179688 C 34.285156 -3.816406 35.558594 -4.949219 35.980469 -5.371094 C 36.195312 -5.796875 36.40625 -6.292969 36.335938 -6.503906 C 36.972656 -7 37.820312 -7.707031 38.316406 -8.484375 C 38.808594 -9.121094 39.09375 -9.898438 39.445312 -10.53125 C 39.871094 -11.097656 39.941406 -11.664062 39.941406 -12.160156 C 39.941406 -12.230469 40.082031 -12.652344 40.222656 -12.722656 L 40.4375 -13.148438 L 40.4375 -13.289062 C 40.507812 -13.359375 42.203125 -16.402344 42.203125 -16.472656 C 42.34375 -16.542969 43.617188 -18.734375 43.757812 -18.945312 L 44.042969 -19.371094 C 44.113281 -19.441406 44.113281 -19.511719 44.113281 -19.582031 C 44.324219 -19.722656 44.535156 -20.21875 44.890625 -20.855469 C 45.242188 -22.339844 45.101562 -22.691406 45.171875 -23.824219 C 45.171875 -23.894531 45.171875 -23.964844 45.03125 -23.964844 C 44.324219 -23.964844 41.851562 -22.902344 40.789062 -19.582031 C 40.507812 -18.664062 39.164062 -15.765625 37.394531 -12.230469 C 36.972656 -11.097656 35.769531 -9.472656 34.640625 -7.917969 C 34.003906 -7.140625 33.578125 -6.148438 33.367188 -5.726562 C 31.882812 -4.171875 30.328125 -1.273438 28.066406 -0.636719 C 27.429688 0.140625 26.15625 1.980469 25.730469 2.472656 C 25.660156 2.472656 25.519531 2.542969 25.449219 2.542969 C 24.035156 2.542969 22.339844 0.496094 21.347656 -0.210938 C 21.066406 -0.210938 20.289062 -1.058594 19.933594 -1.765625 C 19.933594 -2.191406 19.652344 -2.617188 19.582031 -2.617188 C 18.804688 -3.605469 17.957031 -5.726562 17.035156 -8.058594 C 16.542969 -9.898438 17.035156 -13.785156 16.613281 -14.492188 C 16.257812 -15.621094 16.117188 -16.613281 16.1875 -17.601562 C 15.410156 -19.722656 16.1875 -20.003906 16.542969 -22.691406 C 16.753906 -23.398438 17.035156 -25.09375 17.109375 -27.285156 C 17.671875 -33.15625 18.734375 -36.902344 20.5 -42.484375 C 21.136719 -44.113281 21.773438 -45.667969 22.339844 -47.292969 C 22.621094 -47.503906 22.832031 -48.28125 22.902344 -49.132812 C 23.46875 -50.828125 24.035156 -52.3125 24.460938 -53.300781 C 25.589844 -55.210938 27.992188 -59.167969 30.609375 -59.167969 C 30.75 -59.167969 30.964844 -59.167969 31.175781 -59.167969 C 31.882812 -58.886719 32.449219 -58.460938 32.871094 -58.109375 C 33.226562 -57.753906 33.367188 -57.402344 33.507812 -56.976562 C 34.003906 -55.847656 34.003906 -54.574219 33.648438 -53.089844 C 33.296875 -51.675781 32.941406 -50.828125 32.519531 -50.402344 C 32.589844 -50.261719 32.589844 -50.191406 32.800781 -50.121094 C 33.082031 -49.695312 33.4375 -49.554688 33.71875 -49.34375 C 33.863281 -49.132812 33.933594 -48.917969 34.144531 -48.777344 C 34.496094 -48.636719 34.851562 -48.566406 35.273438 -48.566406 C 35.628906 -48.566406 35.980469 -48.636719 36.40625 -48.707031 C 37.253906 -48.988281 37.960938 -49.625 38.386719 -50.6875 C 38.101562 -50.402344 38.246094 -50.96875 38.316406 -51.464844 C 38.953125 -52.523438 39.375 -53.515625 39.304688 -54.714844 C 39.164062 -56.339844 38.527344 -57.824219 37.609375 -58.746094 C 37.253906 -59.167969 36.761719 -59.453125 36.265625 -59.734375 C 35.417969 -60.300781 34.355469 -60.722656 33.296875 -61.078125 C 32.589844 -61.359375 32.023438 -61.644531 31.386719 -61.855469 C 30.398438 -62.066406 29.480469 -62.136719 28.558594 -62.136719 C 27.570312 -62.136719 26.652344 -62.066406 25.875 -61.785156 C 23.609375 -61.785156 21.492188 -61.429688 19.441406 -60.511719 C 17.8125 -59.664062 16.472656 -58.675781 14.988281 -57.472656 L 14.351562 -56.90625 C 11.59375 -54.574219 8.484375 -49.203125 6.644531 -44.253906 C 6.433594 -43.617188 6.222656 -42.839844 6.007812 -42.414062 C 4.59375 -39.234375 3.535156 -34.496094 2.96875 -29.480469 L 2.617188 -27.074219 C 2.542969 -26.367188 2.402344 -25.875 2.402344 -25.449219 L 2.191406 -23.1875 C 2.050781 -21.914062 2.050781 -19.863281 1.980469 -17.601562 C 1.910156 -15.269531 1.910156 -12.652344 2.050781 -11.167969 C 2.332031 -7.351562 3.25 -3.675781 4.949219 -0.210938 C 6.222656 1.910156 7.140625 3.25 8.269531 4.171875 C 10.460938 6.007812 15.480469 8.695312 18.378906 8.695312 Z M 18.378906 8.695312 "/></g></g></g><g fill="#000000" fill-opacity="1"><g transform="translate(222.942664, 674.90929)"><g><path d="M 5.484375 0 L 2.0625 0 L 2.0625 -16.421875 L 11.484375 -16.421875 L 11.484375 -13.5625 L 5.484375 -13.5625 L 5.484375 -9.328125 L 11.0625 -9.328125 L 11.0625 -6.484375 L 5.484375 -6.484375 Z M 5.484375 0 "/></g></g></g><g fill="#000000" fill-opacity="1"><g transform="translate(235.561422, 674.90929)"><g><path d="M 2.0625 0 L 2.0625 -16.421875 L 5.546875 -16.421875 L 5.546875 0 Z M 2.0625 0 "/></g></g></g><g fill="#000000" fill-opacity="1"><g transform="translate(243.173093, 674.90929)"><g><path d="M 8.296875 -9.21875 L 14.8125 -9.21875 L 14.8125 -0.703125 C 13.757812 -0.359375 12.765625 -0.117188 11.828125 0.015625 C 10.898438 0.148438 9.945312 0.21875 8.96875 0.21875 C 6.488281 0.21875 4.597656 -0.503906 3.296875 -1.953125 C 1.992188 -3.410156 1.34375 -5.503906 1.34375 -8.234375 C 1.34375 -10.878906 2.097656 -12.941406 3.609375 -14.421875 C 5.128906 -15.910156 7.234375 -16.65625 9.921875 -16.65625 C 11.597656 -16.65625 13.222656 -16.316406 14.796875 -15.640625 L 13.640625 -12.859375 C 12.441406 -13.453125 11.191406 -13.75 9.890625 -13.75 C 8.390625 -13.75 7.1875 -13.242188 6.28125 -12.234375 C 5.375 -11.222656 4.921875 -9.867188 4.921875 -8.171875 C 4.921875 -6.378906 5.285156 -5.015625 6.015625 -4.078125 C 6.742188 -3.140625 7.804688 -2.671875 9.203125 -2.671875 C 9.921875 -2.671875 10.65625 -2.742188 11.40625 -2.890625 L 11.40625 -6.328125 L 8.296875 -6.328125 Z M 8.296875 -9.21875 "/></g></g></g><g fill="#000000" fill-opacity="1"><g transform="translate(259.82222, 674.90929)"><g><path d="M 9.015625 0 L 5.0625 -12.875 L 4.96875 -12.875 C 5.101562 -10.257812 5.171875 -8.515625 5.171875 -7.640625 L 5.171875 0 L 2.0625 0 L 2.0625 -16.421875 L 6.8125 -16.421875 L 10.6875 -3.859375 L 10.765625 -3.859375 L 14.875 -16.421875 L 19.625 -16.421875 L 19.625 0 L 16.375 0 L 16.375 -7.765625 C 16.375 -8.140625 16.378906 -8.566406 16.390625 -9.046875 C 16.398438 -9.523438 16.453125 -10.796875 16.546875 -12.859375 L 16.4375 -12.859375 L 12.203125 0 Z M 9.015625 0 "/></g></g></g><g fill="#000000" fill-opacity="1"><g transform="translate(281.500888, 674.90929)"><g><path d="M 12.125 0 L 10.921875 -3.90625 L 4.9375 -3.90625 L 3.75 0 L 0 0 L 5.796875 -16.484375 L 10.046875 -16.484375 L 15.875 0 Z M 10.09375 -6.828125 C 9 -10.367188 8.378906 -12.367188 8.234375 -12.828125 C 8.097656 -13.296875 8 -13.664062 7.9375 -13.9375 C 7.6875 -12.976562 6.976562 -10.609375 5.8125 -6.828125 Z M 10.09375 -6.828125 "/></g></g></g><g fill="#000000" fill-opacity="1"><g transform="translate(314.697527, 674.90929)"><g><path d="M 5.546875 -8.6875 L 6.6875 -8.6875 C 7.757812 -8.6875 8.5625 -8.898438 9.09375 -9.328125 C 9.625 -9.753906 9.890625 -10.367188 9.890625 -11.171875 C 9.890625 -11.992188 9.664062 -12.597656 9.21875 -12.984375 C 8.78125 -13.367188 8.082031 -13.5625 7.125 -13.5625 L 5.546875 -13.5625 Z M 13.40625 -11.296875 C 13.40625 -9.523438 12.851562 -8.171875 11.75 -7.234375 C 10.644531 -6.304688 9.078125 -5.84375 7.046875 -5.84375 L 5.546875 -5.84375 L 5.546875 0 L 2.0625 0 L 2.0625 -16.421875 L 7.3125 -16.421875 C 9.300781 -16.421875 10.8125 -15.988281 11.84375 -15.125 C 12.882812 -14.269531 13.40625 -12.992188 13.40625 -11.296875 Z M 13.40625 -11.296875 "/></g></g></g><g fill="#000000" fill-opacity="1"><g transform="translate(329.135003, 674.90929)"><g><path d="M 15.515625 0 L 12.046875 0 L 12.046875 -7.09375 L 5.546875 -7.09375 L 5.546875 0 L 2.0625 0 L 2.0625 -16.421875 L 5.546875 -16.421875 L 5.546875 -9.984375 L 12.046875 -9.984375 L 12.046875 -16.421875 L 15.515625 -16.421875 Z M 15.515625 0 "/></g></g></g><g fill="#000000" fill-opacity="1"><g transform="translate(346.72717, 674.90929)"><g><path d="M 16.96875 -8.234375 C 16.96875 -5.515625 16.289062 -3.425781 14.9375 -1.96875 C 13.59375 -0.507812 11.664062 0.21875 9.15625 0.21875 C 6.632812 0.21875 4.703125 -0.507812 3.359375 -1.96875 C 2.015625 -3.425781 1.34375 -5.519531 1.34375 -8.25 C 1.34375 -10.988281 2.015625 -13.078125 3.359375 -14.515625 C 4.710938 -15.953125 6.648438 -16.671875 9.171875 -16.671875 C 11.691406 -16.671875 13.617188 -15.941406 14.953125 -14.484375 C 16.296875 -13.035156 16.96875 -10.953125 16.96875 -8.234375 Z M 4.984375 -8.234375 C 4.984375 -6.398438 5.332031 -5.019531 6.03125 -4.09375 C 6.726562 -3.164062 7.769531 -2.703125 9.15625 -2.703125 C 11.925781 -2.703125 13.3125 -4.546875 13.3125 -8.234375 C 13.3125 -11.929688 11.929688 -13.78125 9.171875 -13.78125 C 7.785156 -13.78125 6.738281 -13.3125 6.03125 -12.375 C 5.332031 -11.445312 4.984375 -10.066406 4.984375 -8.234375 Z M 4.984375 -8.234375 "/></g></g></g><g fill="#000000" fill-opacity="1"><g transform="translate(365.026614, 674.90929)"><g><path d="M 8.40625 0 L 4.921875 0 L 4.921875 -13.515625 L 0.453125 -13.515625 L 0.453125 -16.421875 L 12.859375 -16.421875 L 12.859375 -13.515625 L 8.40625 -13.515625 Z M 8.40625 0 "/></g></g></g><g fill="#000000" fill-opacity="1"><g transform="translate(378.341425, 674.90929)"><g><path d="M 16.96875 -8.234375 C 16.96875 -5.515625 16.289062 -3.425781 14.9375 -1.96875 C 13.59375 -0.507812 11.664062 0.21875 9.15625 0.21875 C 6.632812 0.21875 4.703125 -0.507812 3.359375 -1.96875 C 2.015625 -3.425781 1.34375 -5.519531 1.34375 -8.25 C 1.34375 -10.988281 2.015625 -13.078125 3.359375 -14.515625 C 4.710938 -15.953125 6.648438 -16.671875 9.171875 -16.671875 C 11.691406 -16.671875 13.617188 -15.941406 14.953125 -14.484375 C 16.296875 -13.035156 16.96875 -10.953125 16.96875 -8.234375 Z M 4.984375 -8.234375 C 4.984375 -6.398438 5.332031 -5.019531 6.03125 -4.09375 C 6.726562 -3.164062 7.769531 -2.703125 9.15625 -2.703125 C 11.925781 -2.703125 13.3125 -4.546875 13.3125 -8.234375 C 13.3125 -11.929688 11.929688 -13.78125 9.171875 -13.78125 C 7.785156 -13.78125 6.738281 -13.3125 6.03125 -12.375 C 5.332031 -11.445312 4.984375 -10.066406 4.984375 -8.234375 Z M 4.984375 -8.234375 "/></g></g></g><g fill="#000000" fill-opacity="1"><g transform="translate(396.64087, 674.90929)"><g><path d="M 11.765625 -4.5625 C 11.765625 -3.082031 11.226562 -1.914062 10.15625 -1.0625 C 9.09375 -0.207031 7.609375 0.21875 5.703125 0.21875 C 3.953125 0.21875 2.40625 -0.109375 1.0625 -0.765625 L 1.0625 -4 C 2.164062 -3.5 3.097656 -3.148438 3.859375 -2.953125 C 4.628906 -2.753906 5.332031 -2.65625 5.96875 -2.65625 C 6.738281 -2.65625 7.328125 -2.800781 7.734375 -3.09375 C 8.140625 -3.382812 8.34375 -3.816406 8.34375 -4.390625 C 8.34375 -4.710938 8.253906 -5 8.078125 -5.25 C 7.898438 -5.5 7.632812 -5.738281 7.28125 -5.96875 C 6.9375 -6.207031 6.226562 -6.582031 5.15625 -7.09375 C 4.15625 -7.5625 3.398438 -8.007812 2.890625 -8.4375 C 2.390625 -8.875 1.988281 -9.378906 1.6875 -9.953125 C 1.394531 -10.535156 1.25 -11.210938 1.25 -11.984375 C 1.25 -13.429688 1.738281 -14.570312 2.71875 -15.40625 C 3.707031 -16.238281 5.070312 -16.65625 6.8125 -16.65625 C 7.664062 -16.65625 8.476562 -16.550781 9.25 -16.34375 C 10.019531 -16.144531 10.832031 -15.863281 11.6875 -15.5 L 10.5625 -12.796875 C 9.6875 -13.148438 8.960938 -13.394531 8.390625 -13.53125 C 7.816406 -13.675781 7.25 -13.75 6.6875 -13.75 C 6.03125 -13.75 5.523438 -13.597656 5.171875 -13.296875 C 4.828125 -12.992188 4.65625 -12.59375 4.65625 -12.09375 C 4.65625 -11.789062 4.722656 -11.523438 4.859375 -11.296875 C 5.003906 -11.066406 5.234375 -10.84375 5.546875 -10.625 C 5.859375 -10.414062 6.59375 -10.035156 7.75 -9.484375 C 9.28125 -8.742188 10.332031 -8.003906 10.90625 -7.265625 C 11.476562 -6.535156 11.765625 -5.632812 11.765625 -4.5625 Z M 11.765625 -4.5625 "/></g></g></g><g fill="#000000" fill-opacity="1"><g transform="translate(409.304535, 674.90929)"><g><path d="M 15.515625 0 L 12.046875 0 L 12.046875 -7.09375 L 5.546875 -7.09375 L 5.546875 0 L 2.0625 0 L 2.0625 -16.421875 L 5.546875 -16.421875 L 5.546875 -9.984375 L 12.046875 -9.984375 L 12.046875 -16.421875 L 15.515625 -16.421875 Z M 15.515625 0 "/></g></g></g><g fill="#000000" fill-opacity="1"><g transform="translate(426.896702, 674.90929)"><g><path d="M 16.96875 -8.234375 C 16.96875 -5.515625 16.289062 -3.425781 14.9375 -1.96875 C 13.59375 -0.507812 11.664062 0.21875 9.15625 0.21875 C 6.632812 0.21875 4.703125 -0.507812 3.359375 -1.96875 C 2.015625 -3.425781 1.34375 -5.519531 1.34375 -8.25 C 1.34375 -10.988281 2.015625 -13.078125 3.359375 -14.515625 C 4.710938 -15.953125 6.648438 -16.671875 9.171875 -16.671875 C 11.691406 -16.671875 13.617188 -15.941406 14.953125 -14.484375 C 16.296875 -13.035156 16.96875 -10.953125 16.96875 -8.234375 Z M 4.984375 -8.234375 C 4.984375 -6.398438 5.332031 -5.019531 6.03125 -4.09375 C 6.726562 -3.164062 7.769531 -2.703125 9.15625 -2.703125 C 11.925781 -2.703125 13.3125 -4.546875 13.3125 -8.234375 C 13.3125 -11.929688 11.929688 -13.78125 9.171875 -13.78125 C 7.785156 -13.78125 6.738281 -13.3125 6.03125 -12.375 C 5.332031 -11.445312 4.984375 -10.066406 4.984375 -8.234375 Z M 4.984375 -8.234375 "/></g></g></g><g fill="#000000" fill-opacity="1"><g transform="translate(445.196147, 674.90929)"><g><path d="M 5.546875 -8.6875 L 6.6875 -8.6875 C 7.757812 -8.6875 8.5625 -8.898438 9.09375 -9.328125 C 9.625 -9.753906 9.890625 -10.367188 9.890625 -11.171875 C 9.890625 -11.992188 9.664062 -12.597656 9.21875 -12.984375 C 8.78125 -13.367188 8.082031 -13.5625 7.125 -13.5625 L 5.546875 -13.5625 Z M 13.40625 -11.296875 C 13.40625 -9.523438 12.851562 -8.171875 11.75 -7.234375 C 10.644531 -6.304688 9.078125 -5.84375 7.046875 -5.84375 L 5.546875 -5.84375 L 5.546875 0 L 2.0625 0 L 2.0625 -16.421875 L 7.3125 -16.421875 C 9.300781 -16.421875 10.8125 -15.988281 11.84375 -15.125 C 12.882812 -14.269531 13.40625 -12.992188 13.40625 -11.296875 Z M 13.40625 -11.296875 "/></g></g></g><g fill="#000000" fill-opacity="1"><g transform="translate(477.183994, 674.90929)"><g><path d="M 9.046875 -13.75 C 7.734375 -13.75 6.71875 -13.253906 6 -12.265625 C 5.28125 -11.285156 4.921875 -9.921875 4.921875 -8.171875 C 4.921875 -4.503906 6.296875 -2.671875 9.046875 -2.671875 C 10.191406 -2.671875 11.585938 -2.957031 13.234375 -3.53125 L 13.234375 -0.625 C 11.878906 -0.0625 10.375 0.21875 8.71875 0.21875 C 6.320312 0.21875 4.492188 -0.503906 3.234375 -1.953125 C 1.972656 -3.398438 1.34375 -5.476562 1.34375 -8.1875 C 1.34375 -9.894531 1.648438 -11.390625 2.265625 -12.671875 C 2.890625 -13.953125 3.78125 -14.9375 4.9375 -15.625 C 6.101562 -16.3125 7.472656 -16.65625 9.046875 -16.65625 C 10.640625 -16.65625 12.238281 -16.269531 13.84375 -15.5 L 12.71875 -12.671875 C 12.101562 -12.960938 11.484375 -13.210938 10.859375 -13.421875 C 10.242188 -13.640625 9.640625 -13.75 9.046875 -13.75 Z M 9.046875 -13.75 "/></g></g></g><g fill="#000000" fill-opacity="1"><g transform="translate(491.834777, 674.90929)"><g><path d="M 12.125 0 L 10.921875 -3.90625 L 4.9375 -3.90625 L 3.75 0 L 0 0 L 5.796875 -16.484375 L 10.046875 -16.484375 L 15.875 0 Z M 10.09375 -6.828125 C 9 -10.367188 8.378906 -12.367188 8.234375 -12.828125 C 8.097656 -13.296875 8 -13.664062 7.9375 -13.9375 C 7.6875 -12.976562 6.976562 -10.609375 5.8125 -6.828125 Z M 10.09375 -6.828125 "/></g></g></g><g fill="#000000" fill-opacity="1"><g transform="translate(507.698038, 674.90929)"><g><path d="M 16.625 0 L 12.203125 0 L 5.0625 -12.421875 L 4.96875 -12.421875 C 5.101562 -10.222656 5.171875 -8.660156 5.171875 -7.734375 L 5.171875 0 L 2.0625 0 L 2.0625 -16.421875 L 6.453125 -16.421875 L 13.59375 -4.125 L 13.671875 -4.125 C 13.554688 -6.257812 13.5 -7.765625 13.5 -8.640625 L 13.5 -16.421875 L 16.625 -16.421875 Z M 16.625 0 "/></g></g></g><g fill="#000000" fill-opacity="1"><g transform="translate(526.390416, 674.90929)"><g><path d="M 11.4375 -16.421875 L 14.953125 -16.421875 L 9.359375 0 L 5.578125 0 L 0 -16.421875 L 3.515625 -16.421875 L 6.609375 -6.65625 C 6.773438 -6.070312 6.945312 -5.394531 7.125 -4.625 C 7.3125 -3.863281 7.429688 -3.332031 7.484375 -3.03125 C 7.566406 -3.71875 7.847656 -4.925781 8.328125 -6.65625 Z M 11.4375 -16.421875 "/></g></g></g><g fill="#000000" fill-opacity="1"><g transform="translate(541.333092, 674.90929)"><g><path d="M 12.125 0 L 10.921875 -3.90625 L 4.9375 -3.90625 L 3.75 0 L 0 0 L 5.796875 -16.484375 L 10.046875 -16.484375 L 15.875 0 Z M 10.09375 -6.828125 C 9 -10.367188 8.378906 -12.367188 8.234375 -12.828125 C 8.097656 -13.296875 8 -13.664062 7.9375 -13.9375 C 7.6875 -12.976562 6.976562 -10.609375 5.8125 -6.828125 Z M 10.09375 -6.828125 "/></g></g></g></svg>